<?xml version="1.0" standalone="no"?>
<!DOCTYPE svg PUBLIC "-//W3C//DTD SVG 20010904//EN"
 "http://www.w3.org/TR/2001/REC-SVG-20010904/DTD/svg10.dtd">
<svg version="1.0" xmlns="http://www.w3.org/2000/svg"
 width="288.000000pt" height="288.000000pt" viewBox="0 0 288.000000 288.000000"
 preserveAspectRatio="xMidYMid meet">
<metadata>
Created by potrace 1.14, written by Peter Selinger 2001-2017
</metadata>
<g transform="translate(0.000000,288.000000) scale(0.100000,-0.100000)"
fill="#000000" stroke="none">
<path d="M0 1440 l0 -1440 1440 0 1440 0 0 1440 0 1440 -1440 0 -1440 0 0
-1440z m1520 870 l0 -170 -80 0 -80 0 0 163 c0 90 3 167 7 170 3 4 39 7 80 7
l73 0 0 -170z m-330 -175 l0 -175 255 0 255 0 0 175 0 175 105 0 105 0 0 -175
0 -175 215 0 215 0 0 -105 0 -105 -215 0 -215 0 0 -120 0 -120 58 0 c165 0
318 -96 366 -230 24 -68 19 -187 -12 -245 -32 -61 -92 -116 -168 -154 -59 -30
-82 -35 -156 -39 -84 -4 -88 -6 -88 -27 0 -47 -41 -153 -77 -200 -21 -27 -71
-70 -111 -96 -95 -63 -185 -84 -321 -76 -110 6 -157 22 -251 84 -118 77 -165
159 -179 306 -1 4 -89 7 -196 7 l-195 0 0 115 0 115 195 0 195 0 0 104 0 104
-98 4 c-94 3 -100 5 -157 43 -107 71 -171 228 -147 359 35 183 152 286 328
286 l75 0 -1 163 c0 89 -1 165 0 170 0 4 50 7 110 7 l110 0 0 -175z"/>
<path d="M1190 1630 l0 -120 255 0 255 0 0 120 0 120 -255 0 -255 0 0 -120z"/>
<path d="M857 1726 c-45 -17 -64 -38 -73 -85 -8 -42 16 -93 52 -110 14 -6 50
-11 80 -11 l55 0 -3 108 -3 107 -35 2 c-19 2 -52 -4 -73 -11z"/>
<path d="M1157 1493 c-4 -3 -7 -11 -7 -17 0 -6 5 -5 12 2 6 6 9 14 7 17 -3 3
-9 2 -12 -2z"/>
<path d="M1220 1450 c-9 -6 -10 -10 -3 -10 6 0 15 5 18 10 8 12 4 12 -15 0z"/>
<path d="M1276 1441 c-18 -19 -17 -21 10 -46 29 -26 29 -26 5 -23 -13 2 -26
-3 -28 -9 -7 -19 33 -16 52 4 14 14 18 14 26 2 5 -8 25 -14 51 -14 35 0 42 -3
40 -17 -2 -11 3 -18 13 -18 10 0 13 5 9 11 -4 7 -9 30 -12 53 -4 37 -3 39 13
26 9 -7 14 -22 12 -32 -3 -10 -1 -21 4 -24 5 -3 9 13 9 35 0 33 -4 41 -18 41
-23 0 -42 -19 -42 -42 0 -10 -4 -18 -10 -18 -5 0 -10 11 -10 24 0 30 -13 40
-41 31 -21 -7 -21 -7 1 -19 27 -13 28 -30 3 -34 -15 -3 -16 -1 -3 8 13 11 13
11 0 7 -9 -3 -31 8 -50 24 -29 24 -31 29 -14 27 23 -3 34 15 11 20 -7 1 -21
-6 -31 -17z"/>
<path d="M1115 1441 c-3 -6 -1 -11 4 -11 6 0 11 -18 11 -41 0 -22 4 -38 8 -35
12 7 8 89 -5 93 -6 2 -14 -1 -18 -6z"/>
<path d="M1168 1410 c-4 -43 4 -66 19 -57 10 6 4 97 -7 97 -4 0 -10 -18 -12
-40z"/>
<path d="M1217 1423 c-3 -5 -1 -28 3 -53 9 -57 27 -21 22 43 -2 17 -17 23 -25
10z"/>
<path d="M1506 1422 c-5 -8 20 -72 28 -72 2 0 12 7 20 16 17 16 22 64 8 64
-17 0 -22 -13 -10 -27 8 -10 8 -17 1 -24 -7 -7 -14 -1 -21 20 -11 32 -17 37
-26 23z"/>
<path d="M1596 1421 c-3 -5 1 -11 9 -15 17 -6 21 -36 4 -36 -5 0 -7 5 -4 10 3
6 1 10 -4 10 -6 0 -11 -9 -11 -19 0 -14 6 -19 23 -17 25 3 27 5 27 46 0 23 -5
30 -19 30 -11 0 -22 -4 -25 -9z"/>
<path d="M1666 1421 c-2 -3 1 -21 6 -40 10 -35 22 -34 23 2 0 15 6 22 20 22
11 0 21 -6 21 -12 1 -7 3 -16 4 -20 1 -5 2 -11 1 -15 0 -5 3 -8 8 -8 17 0 19
14 7 45 -9 26 -16 30 -49 31 -21 0 -39 -2 -41 -5z"/>
<path d="M1190 1175 l0 -105 253 2 252 3 3 80 c2 44 0 90 -3 102 l-5 23 -250
0 -250 0 0 -105z"/>
<path d="M1910 1175 l0 -105 90 0 89 0 26 37 c36 54 33 97 -9 139 -33 33 -36
34 -115 34 l-81 0 0 -105z"/>
<path d="M1190 817 c0 -32 50 -100 101 -136 81 -59 211 -61 294 -3 51 35 105
107 105 138 l0 24 -250 0 -250 0 0 -23z"/>
</g>
</svg>
